# xmcd CD database file
#
# Track frame offsets:
#	150
#	21502
#	39674
#	59241
#
# Disc length: 1034 seconds
#
# Revision: 0
# Processed by: cddbd v1.5.1PL0 Copyright (c) Steve Scherf et al.
# Submitted via: CDex 1.50
#
DISCID=39040804
DTITLE=Various Artist - Universal Music Sampler August 2005
DYEAR=2005
DGENRE=Country
TTITLE0=Tex, Don And Charlie - Whenever It Snows
TTITLE1=Trisha Yearwood - Georgia Rain
TTITLE2=Hanna McUen - Something Like A Broken Heart
TTITLE3=Gary Allan - Best I Ever Had
EXTD=YEAR: 2005
EXTT0=
EXTT1=
EXTT2=
EXTT3=
PLAYORDER=
